<?xml version="1.0" encoding="utf-8"?>
<!-- Generator: Adobe Illustrator 18.0.0, SVG Export Plug-In . SVG Version: 6.00 Build 0)  -->
<!DOCTYPE svg PUBLIC "-//W3C//DTD SVG 1.1//EN" "http://www.w3.org/Graphics/SVG/1.1/DTD/svg11.dtd">
<svg version="1.1" id="Layer_1" xmlns="http://www.w3.org/2000/svg" xmlns:xlink="http://www.w3.org/1999/xlink" x="0px" y="0px"
	 viewBox="0 0 20 20" enable-background="new 0 0 20 20" xml:space="preserve">
<path fill="#999999" d="M19.2,0H1.1C0.5,0,0,0.4,0,1v18.1C0,19.7,0.5,20,1.1,20H11v-9H9v-1h2V7c0-2.6,1.4-4.1,3.8-4.1
	C15.9,2.9,17,3,17,3v3h-1.4C14.3,6,14,6.4,14,7.3V10h3.1l-0.4,1H14v9h5.2c0.6,0,0.8-0.3,0.8-0.9V1C20,0.4,19.9,0,19.2,0z"/>
</svg>
